<mxfile host="app.diagrams.net" agent="Mozilla/5.0 (X11; Linux x86_64; rv:138.0) Gecko/20100101 Firefox/138.0" version="27.0.3">
  <diagram name="Page-1" id="uxHUiz3fvfQ2ZADVN1um">
    <mxGraphModel dx="1039" dy="821" grid="1" gridSize="10" guides="1" tooltips="1" connect="1" arrows="1" fold="1" page="1" pageScale="1" pageWidth="850" pageHeight="1100" math="0" shadow="0">
      <root>
        <mxCell id="0" />
        <mxCell id="1" parent="0" />
        <mxCell id="kufTj_RopSPvjLtaQXOu-1" value="&lt;div&gt;traefik&lt;/div&gt;&lt;div&gt;&lt;font face=&quot;Garamond&quot;&gt;Application Proxy&lt;/font&gt;&lt;/div&gt;" style="rounded=0;whiteSpace=wrap;html=1;" parent="1" vertex="1">
          <mxGeometry x="280" y="70" width="120" height="60" as="geometry" />
        </mxCell>
        <mxCell id="kufTj_RopSPvjLtaQXOu-2" value="&lt;div&gt;workbook&lt;/div&gt;&lt;div&gt;&lt;font face=&quot;Garamond&quot;&gt;Spring REST&lt;/font&gt;&lt;/div&gt;" style="rounded=0;whiteSpace=wrap;html=1;fillColor=#d5e8d4;strokeColor=#82b366;" parent="1" vertex="1">
          <mxGeometry x="200" y="180" width="120" height="60" as="geometry" />
        </mxCell>
        <mxCell id="kufTj_RopSPvjLtaQXOu-3" value="&lt;div&gt;webtens&lt;/div&gt;&lt;div&gt;&lt;font face=&quot;Garamond&quot;&gt;Node.js/vue.js&lt;/font&gt;&lt;/div&gt;" style="rounded=0;whiteSpace=wrap;html=1;fillColor=#dae8fc;strokeColor=#6c8ebf;" parent="1" vertex="1">
          <mxGeometry x="360" y="180" width="120" height="60" as="geometry" />
        </mxCell>
        <mxCell id="kufTj_RopSPvjLtaQXOu-4" value="&lt;div&gt;config-controller&lt;/div&gt;&lt;div&gt;&lt;font face=&quot;Garamond&quot;&gt;&lt;b&gt;Python Flask&lt;/b&gt;&lt;/font&gt;&lt;/div&gt;" style="rounded=0;whiteSpace=wrap;html=1;fillColor=#dae8fc;strokeColor=#6c8ebf;" parent="1" vertex="1">
          <mxGeometry x="520" y="180" width="120" height="60" as="geometry" />
        </mxCell>
        <mxCell id="kufTj_RopSPvjLtaQXOu-5" value="scim" style="rounded=1;whiteSpace=wrap;html=1;fillColor=#fff2cc;strokeColor=#d6b656;" parent="1" vertex="1">
          <mxGeometry x="430" y="310" width="120" height="60" as="geometry" />
        </mxCell>
        <mxCell id="kufTj_RopSPvjLtaQXOu-6" value="&lt;div&gt;api-gw&lt;/div&gt;" style="rounded=1;whiteSpace=wrap;html=1;fillColor=#fff2cc;strokeColor=#d6b656;" parent="1" vertex="1">
          <mxGeometry x="240" y="350" width="120" height="60" as="geometry" />
        </mxCell>
        <mxCell id="kufTj_RopSPvjLtaQXOu-8" value="calc" style="text;html=1;align=center;verticalAlign=middle;resizable=0;points=[];autosize=1;strokeColor=none;fillColor=none;" parent="1" vertex="1">
          <mxGeometry x="370" y="330" width="40" height="30" as="geometry" />
        </mxCell>
        <mxCell id="kufTj_RopSPvjLtaQXOu-9" value="" style="endArrow=classic;html=1;rounded=0;exitX=0.75;exitY=1;exitDx=0;exitDy=0;" parent="1" source="kufTj_RopSPvjLtaQXOu-4" edge="1">
          <mxGeometry width="50" height="50" relative="1" as="geometry">
            <mxPoint x="400" y="390" as="sourcePoint" />
            <mxPoint x="590" y="340" as="targetPoint" />
            <Array as="points">
              <mxPoint x="610" y="340" />
            </Array>
          </mxGeometry>
        </mxCell>
        <mxCell id="kufTj_RopSPvjLtaQXOu-10" value="scim" style="rounded=1;whiteSpace=wrap;html=1;fillColor=#fff2cc;strokeColor=#d6b656;" parent="1" vertex="1">
          <mxGeometry x="440" y="320" width="120" height="60" as="geometry" />
        </mxCell>
        <mxCell id="kufTj_RopSPvjLtaQXOu-11" value="scim" style="rounded=1;whiteSpace=wrap;html=1;fillColor=#fff2cc;strokeColor=#d6b656;" parent="1" vertex="1">
          <mxGeometry x="450" y="330" width="120" height="60" as="geometry" />
        </mxCell>
        <mxCell id="kufTj_RopSPvjLtaQXOu-12" value="scim" style="rounded=1;whiteSpace=wrap;html=1;fillColor=#fff2cc;strokeColor=#d6b656;" parent="1" vertex="1">
          <mxGeometry x="460" y="340" width="120" height="60" as="geometry" />
        </mxCell>
        <mxCell id="kufTj_RopSPvjLtaQXOu-13" value="create" style="text;html=1;align=center;verticalAlign=middle;resizable=0;points=[];autosize=1;strokeColor=none;fillColor=none;" parent="1" vertex="1">
          <mxGeometry x="600" y="278" width="60" height="30" as="geometry" />
        </mxCell>
        <mxCell id="kufTj_RopSPvjLtaQXOu-20" value="" style="rounded=0;orthogonalLoop=1;jettySize=auto;html=1;exitX=0;exitY=0.5;exitDx=0;exitDy=0;fillColor=#dae8fc;strokeColor=#6c8ebf;" parent="1" source="kufTj_RopSPvjLtaQXOu-14" target="kufTj_RopSPvjLtaQXOu-6" edge="1">
          <mxGeometry relative="1" as="geometry" />
        </mxCell>
        <mxCell id="kufTj_RopSPvjLtaQXOu-14" value="" style="rounded=0;whiteSpace=wrap;html=1;fillColor=none;dashed=1;strokeColor=#d6b656;strokeWidth=3;" parent="1" vertex="1">
          <mxGeometry x="420" y="295" width="170" height="130" as="geometry" />
        </mxCell>
        <mxCell id="kufTj_RopSPvjLtaQXOu-15" value="" style="endArrow=classic;html=1;rounded=0;exitX=1;exitY=0.5;exitDx=0;exitDy=0;entryX=0;entryY=0.5;entryDx=0;entryDy=0;" parent="1" source="kufTj_RopSPvjLtaQXOu-3" target="kufTj_RopSPvjLtaQXOu-4" edge="1">
          <mxGeometry width="50" height="50" relative="1" as="geometry">
            <mxPoint x="400" y="360" as="sourcePoint" />
            <mxPoint x="450" y="310" as="targetPoint" />
          </mxGeometry>
        </mxCell>
        <mxCell id="kufTj_RopSPvjLtaQXOu-16" value="" style="endArrow=classic;startArrow=classic;html=1;rounded=0;entryX=0.575;entryY=0.95;entryDx=0;entryDy=0;entryPerimeter=0;exitX=0.459;exitY=0.015;exitDx=0;exitDy=0;exitPerimeter=0;edgeStyle=orthogonalEdgeStyle;curved=1;" parent="1" source="kufTj_RopSPvjLtaQXOu-14" target="kufTj_RopSPvjLtaQXOu-3" edge="1">
          <mxGeometry width="50" height="50" relative="1" as="geometry">
            <mxPoint x="400" y="360" as="sourcePoint" />
            <mxPoint x="450" y="310" as="targetPoint" />
          </mxGeometry>
        </mxCell>
        <mxCell id="kufTj_RopSPvjLtaQXOu-18" value="" style="endArrow=classic;startArrow=classic;html=1;rounded=0;exitX=0.7;exitY=1;exitDx=0;exitDy=0;exitPerimeter=0;" parent="1" source="kufTj_RopSPvjLtaQXOu-1" target="kufTj_RopSPvjLtaQXOu-3" edge="1">
          <mxGeometry width="50" height="50" relative="1" as="geometry">
            <mxPoint x="400" y="360" as="sourcePoint" />
            <mxPoint x="450" y="310" as="targetPoint" />
          </mxGeometry>
        </mxCell>
        <mxCell id="kufTj_RopSPvjLtaQXOu-19" value="" style="endArrow=classic;html=1;rounded=0;entryX=0.5;entryY=1;entryDx=0;entryDy=0;exitX=-0.012;exitY=0.154;exitDx=0;exitDy=0;exitPerimeter=0;" parent="1" source="kufTj_RopSPvjLtaQXOu-14" target="kufTj_RopSPvjLtaQXOu-2" edge="1">
          <mxGeometry width="50" height="50" relative="1" as="geometry">
            <mxPoint x="400" y="360" as="sourcePoint" />
            <mxPoint x="450" y="310" as="targetPoint" />
          </mxGeometry>
        </mxCell>
        <mxCell id="kufTj_RopSPvjLtaQXOu-21" value="" style="endArrow=classic;html=1;rounded=0;exitX=0;exitY=0.5;exitDx=0;exitDy=0;entryX=1;entryY=0.5;entryDx=0;entryDy=0;" parent="1" source="kufTj_RopSPvjLtaQXOu-3" target="kufTj_RopSPvjLtaQXOu-2" edge="1">
          <mxGeometry width="50" height="50" relative="1" as="geometry">
            <mxPoint x="400" y="360" as="sourcePoint" />
            <mxPoint x="450" y="310" as="targetPoint" />
          </mxGeometry>
        </mxCell>
        <mxCell id="kufTj_RopSPvjLtaQXOu-22" value="" style="endArrow=classic;html=1;rounded=0;exitX=0.35;exitY=0.983;exitDx=0;exitDy=0;exitPerimeter=0;entryX=0.575;entryY=0.033;entryDx=0;entryDy=0;entryPerimeter=0;" parent="1" source="kufTj_RopSPvjLtaQXOu-1" target="kufTj_RopSPvjLtaQXOu-2" edge="1">
          <mxGeometry width="50" height="50" relative="1" as="geometry">
            <mxPoint x="400" y="360" as="sourcePoint" />
            <mxPoint x="450" y="310" as="targetPoint" />
          </mxGeometry>
        </mxCell>
        <mxCell id="kufTj_RopSPvjLtaQXOu-24" value="H2" style="shape=cylinder3;whiteSpace=wrap;html=1;boundedLbl=1;backgroundOutline=1;size=15;" parent="1" vertex="1">
          <mxGeometry x="140" y="258" width="60" height="80" as="geometry" />
        </mxCell>
        <mxCell id="kufTj_RopSPvjLtaQXOu-25" value="" style="endArrow=classic;html=1;rounded=0;exitX=0;exitY=0.5;exitDx=0;exitDy=0;" parent="1" source="kufTj_RopSPvjLtaQXOu-2" target="kufTj_RopSPvjLtaQXOu-24" edge="1">
          <mxGeometry width="50" height="50" relative="1" as="geometry">
            <mxPoint x="340" y="410" as="sourcePoint" />
            <mxPoint x="390" y="360" as="targetPoint" />
            <Array as="points">
              <mxPoint x="170" y="210" />
            </Array>
          </mxGeometry>
        </mxCell>
        <mxCell id="kufTj_RopSPvjLtaQXOu-26" value="REST" style="text;html=1;align=center;verticalAlign=middle;resizable=0;points=[];autosize=1;strokeColor=none;fillColor=none;" parent="1" vertex="1">
          <mxGeometry x="280" y="270" width="60" height="30" as="geometry" />
        </mxCell>
        <mxCell id="kufTj_RopSPvjLtaQXOu-27" value="" style="shape=mxgraph.networks2.icon;aspect=fixed;fillColor=#EDEDED;strokeColor=#000000;gradientColor=#5B6163;network2IconShadow=1;network2bgFillColor=none;network2Icon=mxgraph.networks2.globe;network2IconW=1;network2IconH=1;" parent="1" vertex="1">
          <mxGeometry x="550" y="75" width="50" height="50" as="geometry" />
        </mxCell>
        <mxCell id="kufTj_RopSPvjLtaQXOu-28" value="" style="endArrow=classic;html=1;rounded=0;entryX=1;entryY=0.5;entryDx=0;entryDy=0;exitX=0.08;exitY=0.48;exitDx=0;exitDy=0;exitPerimeter=0;" parent="1" source="kufTj_RopSPvjLtaQXOu-27" target="kufTj_RopSPvjLtaQXOu-1" edge="1">
          <mxGeometry width="50" height="50" relative="1" as="geometry">
            <mxPoint x="510" y="450" as="sourcePoint" />
            <mxPoint x="560" y="400" as="targetPoint" />
          </mxGeometry>
        </mxCell>
        <mxCell id="kufTj_RopSPvjLtaQXOu-30" value="Browser" style="text;html=1;align=center;verticalAlign=middle;resizable=0;points=[];autosize=1;strokeColor=none;fillColor=none;" parent="1" vertex="1">
          <mxGeometry x="540" y="125" width="70" height="30" as="geometry" />
        </mxCell>
      </root>
    </mxGraphModel>
  </diagram>
</mxfile>
